<svg xmlns="http://www.w3.org/2000/svg" xml:space="preserve" width="938.388" height="1088.531"><g style="display:inline"><path d="M509.512 47.963c-35.626 0-71.08 9.207-104.479 21.959-29.95 11.197-53.481 33.969-75.105 56.728-21.124 23.096-41.152 47.5-57.115 74.498-7.388 16.539-23.548 26.216-38.502 35.05-13.564 8.1-28.402 14.141-41.075 23.663-8.796 8.357-9.414 21.261-10.113 32.614-1.253 15.062-.456 30.244-.732 45.353.312 130.185 1.121 260.371 3.02 390.543.41 10.575-.509 21.432 3.2 31.568 3.829 12.478 8.345 25.39 17.916 34.706 8.57 10.122 21.065 15.576 33.62 18.908 9.632 3.366 21.788 5.435 26.863 15.457 8.274 13.94 13.762 29.41 22.527 43.047 10.395 12.824 20.5 25.977 32.059 37.78 16.976 13.235 33.6 27.178 52.314 37.93 20.924 8.87 41.044 19.964 62.945 26.327 6.792 1.171 13.465 3.3 20.223 4.982 13.69 2.351 27.392 4.163 41.293 5.112 3.493.621 10.219 1.58 13.99 1.72 3.772-.14 10.498-1.099 13.99-1.72 13.902-.949 27.603-2.76 41.294-5.112 6.757-1.682 13.43-3.811 20.222-4.982 21.901-6.363 42.021-17.458 62.945-26.326 18.714-10.753 35.337-24.696 52.313-37.93 11.558-11.804 21.665-24.957 32.06-37.781 8.765-13.636 14.253-29.106 22.528-43.047 5.075-10.022 17.23-12.091 26.863-15.457 12.555-3.332 25.047-8.786 33.617-18.908 9.572-9.316 14.09-22.228 17.918-34.706 3.71-10.136 2.79-20.993 3.201-31.568 1.898-130.172 2.708-260.358 3.02-390.543-.276-15.109.52-30.29-.732-45.353-.7-11.353-1.318-24.257-10.114-32.614-12.672-9.522-27.51-15.563-41.074-23.664-14.955-8.833-31.114-18.51-38.502-35.049-15.964-26.998-35.994-51.402-57.117-74.498-21.624-22.76-45.153-45.531-75.104-56.728-33.398-12.752-68.852-21.96-104.478-21.96h-2.85z" class="UnoptimicedTransforms" style="display:inline;fill:#d2c2a6;fill-opacity:1" transform="translate(-43.167 -47.963)"/><path d="M509.512 47.963c-35.626 0-71.08 9.207-104.479 21.959-29.95 11.197-53.481 33.969-75.105 56.728-21.124 23.096-41.152 47.5-57.115 74.498-7.388 16.539-23.548 26.216-38.502 35.05-13.564 8.1-28.402 14.141-41.075 23.663-8.796 8.357-9.414 21.261-10.113 32.614-1.253 15.062-.456 30.244-.732 45.353.312 130.185 1.121 260.371 3.02 390.543.41 10.575-.509 21.432 3.2 31.568 3.829 12.478 8.345 25.39 17.916 34.706 8.57 10.122 21.065 15.576 33.62 18.908 9.632 3.366 21.788 5.435 26.863 15.457 8.274 13.94 13.762 29.41 22.527 43.047 10.395 12.824 20.5 25.977 32.059 37.78 16.976 13.235 33.6 27.178 52.314 37.93 20.924 8.87 41.044 19.964 62.945 26.327 6.792 1.171 13.465 3.3 20.223 4.982 13.69 2.351 27.392 4.163 41.293 5.112 3.499.622 10.242 1.582 14.01 1.72 3.768-.138 10.509-1.098 14.008-1.72 13.9-.949 27.602-2.76 41.293-5.112 6.758-1.682 13.43-3.811 20.222-4.982 21.902-6.363 42.023-17.458 62.948-26.326 18.713-10.753 35.336-24.696 52.312-37.93 11.558-11.804 21.663-24.957 32.059-37.781 8.764-13.636 14.252-29.106 22.527-43.047 5.075-10.022 17.23-12.091 26.863-15.457 12.555-3.332 25.05-8.786 33.62-18.908 9.571-9.316 14.09-22.228 17.917-34.706 3.71-10.136 2.788-20.993 3.2-31.568 1.897-130.172 2.707-260.358 3.02-390.543-.277-15.109.52-30.29-.733-45.353-.7-11.353-1.316-24.257-10.112-32.614-12.672-9.522-27.513-15.563-41.076-23.664-14.955-8.833-31.114-18.51-38.502-35.049-15.963-26.998-35.992-51.402-57.115-74.498-21.624-22.76-45.155-45.531-75.105-56.728-33.4-12.752-68.853-21.96-104.479-21.96h-2.867z" class="UnoptimicedTransforms" style="display:inline;fill:#30282a;fill-opacity:1" transform="matrix(.95 0 0 .95 -17.567 -22.117)"/><path d="M509.512 47.963c-35.626 0-71.08 9.207-104.479 21.959-29.95 11.197-53.481 33.969-75.105 56.728-21.124 23.096-41.152 47.5-57.115 74.498-7.388 16.539-23.548 26.216-38.502 35.05-13.564 8.1-28.402 14.141-41.075 23.663-8.796 8.357-9.414 21.261-10.113 32.614-1.253 15.062-.456 30.244-.732 45.353.312 130.185 1.121 260.371 3.02 390.543.41 10.575-.509 21.432 3.2 31.568 3.829 12.478 8.345 25.39 17.916 34.706 8.57 10.122 21.065 15.576 33.62 18.908 9.632 3.366 21.788 5.435 26.863 15.457 8.274 13.94 13.762 29.41 22.527 43.047 10.395 12.824 20.5 25.977 32.059 37.78 16.976 13.235 33.6 27.178 52.314 37.93 20.924 8.87 41.044 19.964 62.945 26.327 6.792 1.171 13.465 3.3 20.223 4.982 13.69 2.351 27.392 4.163 41.293 5.112 3.512.624 10.292 1.59 14.05 1.722 3.76-.132 10.54-1.098 14.052-1.722 13.9-.949 27.602-2.76 41.293-5.112 6.758-1.682 13.43-3.811 20.222-4.982 21.901-6.363 42.023-17.458 62.948-26.326 18.713-10.753 35.336-24.696 52.312-37.93 11.558-11.804 21.663-24.957 32.059-37.781 8.764-13.636 14.252-29.106 22.527-43.047 5.075-10.022 17.23-12.091 26.863-15.457 12.555-3.332 25.05-8.786 33.62-18.908 9.571-9.316 14.09-22.228 17.917-34.706 3.71-10.136 2.79-20.993 3.202-31.568 1.897-130.172 2.707-260.358 3.02-390.543-.277-15.109.518-30.29-.735-45.353-.7-11.353-1.316-24.257-10.112-32.614-12.672-9.522-27.513-15.563-41.076-23.664-14.955-8.833-31.112-18.51-38.5-35.049-15.964-26.998-35.994-51.402-57.117-74.498-21.624-22.76-45.153-45.531-75.104-56.728-33.398-12.752-68.852-21.96-104.478-21.96h-2.912z" class="UnoptimicedTransforms" style="display:inline;fill:#30282a;fill-opacity:1;stroke:#584236;stroke-width:8.18713;stroke-dasharray:none;stroke-opacity:1" transform="translate(31.073 26.992)scale(.855)"/><g style="display:inline"><path d="m-15.322 75.3.623 2.682-2.106 5.548-1.915 4.67-.57 3.42 1.122 2.937.876.493 1.367-1.2 1.6-5.59 2.873-5.123 1.363-.643 5.751-2.039 2.51-3.955 2.682-1.396 2.401 1.98-1.086 2.46 3.155 2.844 5.037-.91 4.883-3.234s.884 1.836 1.873 2.463c.988.628 2.834 1.122 2.834 1.122s3.574-.987 2.635-2.401c-.939-1.414-1.6-3.496-1.6-3.496s1.595-1.257 2.492-.096a21.79 21.79 0 0 1 1.591 2.414l.744 2.222 1.82 1.453 3.082-1.993 1.482-4.769 3.959 5.893 4.081-5.399 1.96 4.237 1.335-.122 4.099-4.64 1.616-3.355 1.133 6.262s.463 2.474 1.123 2.474c.66 0 3.358-1.459 3.31-3.152-.048-1.693-.963-5.51-.963-5.51l2.738-1.596s2.482-.986 2.725 1.266c.242 2.251-.158 3.423-.158 3.423l-2.153 3.949 2.261 1.154s2.704.349 2.856-1.781c.15-2.13.838-8.002 1.961-8.002 1.123 0 2.915.884 2.915.884s.874 1.868 2.223 1.63c1.35-.239 5.382.115 4.696-1.89-.685-2.004-2.201-4.968-2.201-4.968l-6.303-3.894-5.153-.338-14.19-.757-19.4-.426-22.822.893-9.487.247-5.109 1.242-5.717 2.393-2.608 3.557.24 1.86.665 1.982z" style="fill:#fff;fill-opacity:1;stroke:none;stroke-width:.3;stroke-dasharray:none;stroke-opacity:1" transform="translate(437.522 54.884)"/><path d="M-16.262 68.988c0 2.224 1.024 4.61 1.024 4.61l1.867 2.513s-4.601 13.224-2.48 10.042a133.504 133.504 0 0 0 3.596-5.689l3.754-2.138 1.487.605 2.67-.053 3.226-4.687 4.388.273s1.05.833.702 1.847c-.347 1.014-.488 3.657-.488 3.657l6.29.875.807-6.607s4.99-.78 8.267-1.677c3.278-.898 5.534-.553 5.534-.553l2.986 3.663 1.024 2.33 3.367-4.808 2.547 2.317s5.31-5.24 6.373-2.928c1.062 2.312 2.92.97 3.456-.193.537-1.163 5.735-9.377 6.27-3.638.534 5.738.306 5.837.744 4.363.438-1.473 5.955-6.552 6.82-6.065.864.486 10.825 3.243 10.825 3.243l5.28 1.641-1.753-4.42-9.765-3.278-7.762-2.185s-19.317.285-21.008 1.742c-1.692 1.457-10.634 1.312-11.286-.201-.651-1.514-8.02-2.595-9.731-.398-1.711 2.197-4.753 4.633-10.403 2.927s-15.84.194-15.84.194z" style="fill:#e4d5ba;fill-opacity:1;stroke:none;stroke-width:.3;stroke-dasharray:none;stroke-opacity:1" transform="translate(437.522 54.884)"/><path d="M-10.723 135.295c-4.745 2.042-2.468 6.718-2.161 10.655.576 7.891-1.951 15.765-2.632 23.65-4.744 34.05-10.079 68.047-14.453 102.13-.378 12.016-.54 24.596-8.033 34.65-4.907 10.72-14.444 18.157-21.827 27.12-4.9 5.29-6.242 12.877-9.584 19.172-1.714 12.661-3.258 25.334-2.942 38.137-.036 10.224-.408 20.431-1.487 30.602 5.162 1.227 8.328 5.223 6.981-.073-.068-16.629-2.45-39.047-.053-55.58.552-5.793.417-11.787 4.025-16.692 3.842-7.44 7.002-15.337 13.221-21.187 6.067-7.416 12.909-14.395 18.588-22.004 4.487-15.36 5.127-31.509 8.212-47.176 4.258-26.697 8.833-53.369 12.453-80.153 1.4-13.202 2.237-26.439 2.44-39.714z" style="fill:#e4d5ba;fill-opacity:1;stroke:none;stroke-width:.3;stroke-dasharray:none;stroke-opacity:1" transform="translate(436.288 18.76)"/><path d="M.495 130.644c-2.642 5.723-6.591 11.1-5.856 17.712l-1.332 22.824c-5.296-.908-4.322 4.902-1.23 6.68 2.585 5.064-3.84 6.033-3.657 8.43 2.406 2.556 4.303 7.508 2.098 10.03-4.768-.63-7.45 1.348-7.84 6.196 1.143 2.884 9.732 4.01 6.063 7.798-.943 5.09-8.3 1.262-6.765 7.384 1.971 3.62 5.518 6.753 4.742 11.348-.22 3.964-.86 8.3-5.264 9.52-4.989 1.254-3.983 7.585 1.384 5.079 4.338-.668.373 6.757 1.09 9.567-2.016 16.176-2.53 32.55-4.994 48.648-.832 4.43-1.235 9.06-4.923 12.154-6.374 8.688-14.053 16.335-21.005 24.478-3.12 6.82-7.376 13.292-7.5 21.032-3.413 16.702-1.632 33.856-2.927 50.731l-2.463 11.582 15.745-1.176c-.275-16.762-.983-33.568-.99-50.304 1.826-7.15 2.93-14.651 5.205-21.583 7.243-9.208 14.634-18.28 23.461-26.037 5.723-5.622 14.84-12.228 10.176-21.38-6.029-11.138-8.8-23.245-4.247-35.856 4.896-9.035-.546-23.77 13.4-23.156 5.265-3.066 11.697-4.553 16.659-7.799 2.534-3.297 3.098-9.187 8.216-9.083 4.578-.529 5.372 5.272 8.042 7.936 2.101 3.367 6.931-2.591 9.853 1.847 6.652-.168 13.794 2.616 19.865-1.047 2.56-2.224 7.344-5.012 6.871-8.783-1.715-12.069-2.055-24.345-3.48-36.393-2.828-5.164-3.705-10.795-3.8-16.615l-2.066-25.689-12.072-4.327c3.257-2.462 8.504-3.422 8.486-8.354-1.406-2.382-6.25-5.113-9.421-5.605-10.315 1.403-20.676 1.147-31.042.915z" style="fill:#e4d5ba;fill-opacity:1;stroke:none;stroke-width:.3;stroke-dasharray:none;stroke-opacity:1" transform="translate(436.288 18.76)"/><path d="M476.61 299.778c-1.408 2.099-8.549 7.383-2.953 6.9 3.298.469 8.418 2.34 7.32 5.959-1.455 8.626-5.125 16.95-4.93 25.799 1.392 6.915.241 14.697 4.273 20.84 2.84 2.782 6.996 3.627 10.557 5.212 5.226 1.789 10.487 4.027 16.062 4.272 7.826-1.753 15.235-4.99 22.732-7.783 3.561-3.991 5.439-9.314 5.264-14.65.404-4.536 3.623-9.345.814-13.716-1.943-3.355-4.974-6.324-8.792-7.362l-4.11 6.634 4.409-17.942c-1.26.136-3.091-1.055-3.916.095l-7.312 9.999 2.276 4.973-5.275 4.404-2.281-12.692 6.92-4.927c1.35-4.299 2.943-8.851 2.45-13.345 3.134 1.065 5.01 5 7.734 6.187 3.095-.851 6.172-1.969 9.278-2.653l7.527 1.198c1.375-2.565 2.75-5.13 4.123-7.695-3.782-.814-7.58-1.962-11.352-2.569l-10.824 3.638c-4.77-3.641-9.453-7.438-14.277-10.983l-10.586-4.033-6.955 14.185c-4.795 2.319-7.768 3.625-12.562 5.944-1.264-2.3-4.35-3.588-5.615-5.89" style="fill:#be6c1e;fill-opacity:1;stroke:none;stroke-width:.3;stroke-dasharray:none;stroke-opacity:1" transform="translate(-43.167 -47.963)"/><path d="M512.791 202.224s-4.908-2.657-5.181-1.951c-.274.705-1.25 1.754-.737 2.986.515 1.232-.914 2.852.802 3.611 1.716.759 6.392-.97 7.626-2.007 1.234-1.037 3.835-2.22 4.596-3.938.762-1.717-.535-1.793 2.712-2.09 3.247-.297 6.326.936 6.326.936s.814.48 1.716 1.718c.903 1.237 2.79 3.785 1.346 4.908-1.443 1.122-1.59 1.187-3.36 2.16-1.768.971-4.42 2.698-4.554 3.561-.134.864-2.295-.641-2.295-1.452 0-.812-2-.99.528-2.205 2.529-1.214 8.159-3.868 7.93-4.86-.228-.991.181-4.055-.828-3.646-1.01.408-3.78 2.738-6.26 3.357-2.481.62-5.186 1.446-5.432 3.422-.247 1.977-9.069 6.532-12.876 5.162-3.808-1.37-12.916.55-14.621-.424s-5.95 1.1-5.687-3.505c.263-4.606-.459-3.638 2.145-5.737 2.604-2.1 5.16-4.704 6.904-4.238 1.743.466-5.66.103 3.004.537 8.664.434 9.416-.158 12.245-.094 2.83.063 4.675 1.376 4.675 1.376zm19.761-5.797c.337 7.604 2.426 8.294 2.426 8.294l3.757-2.835-1.766-3.025z" style="fill:#897360;fill-opacity:1;stroke:none;stroke-width:.3;stroke-dasharray:none;stroke-opacity:1" transform="translate(-43.167 -47.963)"/><path d="m540.34 211.892 2.84 2.237 2.5 12.899.61 13.45 1.483 9.899 1.545 11.351 1.035 13.01 2.099 10.444.038 9.227-3.325 5.317s-1.737.008-2.186-3.213c-.449-3.222-.231-6.909-.746-12.285-.515-5.377.799-6.874-1.007-12.255-1.805-5.38-1.107-5.328-2.873-6.594-1.766-1.267-1.514-3.558-.218-4.472 1.297-.914 4.93-4.094-.181-2.852-5.112 1.241-10.046 1.829-9.336-.461.71-2.29-1.402-1.802 1.885-3.49 3.287-1.689 6.2-1.274 6.06-4.112-.14-2.838.077 1.075-2.538-3.974-2.615-5.048-.516-7.058-4.22-8.006-3.704-.948-8.911-.717-7.248-2.243 1.663-1.526-.81-1.281 4.497-.508 5.307.774 9.232 5.305 8.22 1.102-1.011-4.202.47-6.18-2.567-5.621-3.035.558-3.735 1.782-4.763-.326-1.029-2.108-6.32-2.51.011-3.21 6.332-.699 7.699 3.083 6.332-.912-1.367-3.994-2.74-2.845-1.665-5.65 1.075-2.806 2.652-4.222.323-4.663-2.329-.441-4.807 3.376-2.329-.603 2.478-3.978 1.127-4.77 5.723-3.486" style="display:inline;fill:#897360;fill-opacity:1;stroke:none;stroke-width:.3;stroke-dasharray:none;stroke-opacity:1" transform="translate(-43.167 -47.963)"/><path d="M449.505 486.649c6.334-10.457 7.325-4.816 7.2-20.338-.124-15.523-1.123-34.882 4.012-43.893 5.136-9.01 8.285-28.28 20.836-32.507 12.55-4.227 28.714-14.45 33.126-11.477 4.412 2.972 28.693 8.97 28.693 13.174 0 4.204 7.387 19.398 7.387 22.846 0 3.448-4.354 10.367-.521 10.884 3.832.517 9.471-11.773 9.892 4.874.42 16.646 1.269 27.963.42 32.904-.848 4.94-2 24.382-2 24.382l-44.074-.368-36.295-.976-3.636-13.243-3.65 11.796-10.925 4.008z" style="display:inline;fill:#be6c1e;fill-opacity:1;stroke:none;stroke-width:.3;stroke-dasharray:none;stroke-opacity:1" transform="translate(-43.167 -47.963)"/><path d="m503.047 402.235 4.267 1.524 6.202-1.301 7 3.87 4.037 9.097s-2.311 14.054-2.311 15.94c0 1.887 3.844-.034 3.844-.034s.258-4.035 2.654-3.87c2.395.164 5.838-1.225 6.136 1.566.297 2.79 3.389 4.2 5.65 3.958 2.261-.243-3.203-.427 5.944-2.892s11.628-11.145 11.628-11.145l-7.36-5.784s-1.72 4.015-2.175 6.487c-.456 2.473-2.795 7.674-2.795 7.674l-3.07.17-.86-4.847-7.706 1.856-3.777-5.457 3.052-.98 8.993 1.57 1.833-5.021v-4.79l-2.92-3.319-5.9-1.266-5.066 2.943 7.322 1.642 1.138 3.214.297 2.666-1.778 1.173-2.601-1.73-6.948 1.48.3-4.768-3.028-6.289s-3.61-4.21-6.541-4.923c-2.932-.713-7.84-1.499-9.7-1.097-1.861.402-5.761 2.683-5.761 2.683" style="display:inline;fill:#30282a;fill-opacity:1;stroke:none;stroke-width:.3;stroke-dasharray:none;stroke-opacity:1" transform="translate(-43.167 -47.963)"/><path d="m551.848 202.045-.26 14.78 5.062 37.462 4.915 32.533 2.424 8.108 1.024-.827-.998-13.845-4.731-35.035-3.819-30.353zm49.455 241.178c0 .87-1.78 8.537-1.78 8.537l.711 18.771-.198 17.734 3.436-.229-.404-25.063-.838-15.978z" style="display:inline;fill:#584236;fill-opacity:1;stroke:none;stroke-width:.3;stroke-dasharray:none;stroke-opacity:1" transform="translate(-43.167 -47.963)"/></g><g style="stroke-width:0;stroke-dasharray:none"><path d="M542.71 482.66c-5.626.334-13.354.658-19.722.98-53.066 2.584-106.142 4.995-159.187 7.977-22.943 1.644-45.43 6.886-68.082 10.635-55.29 10.24-110.523 21.105-165.008 35.074-5.883 2.037-13.931 2.635-16.166 9.582-4.841 16.744 1.872 33.823 4.434 50.377 1.783 11.17 4.252 22.311 4.355 33.672-3.752 6.486-12.86 7.669-19.18 11.344-14.824 6.32-30.889 8.78-46.402 12.84-9.228 1.732-18.51 4.318-27.934 4.238-8.69-.98-17.828-1.166-25.773-5.213-3.187-4.057 1.378 7.768 2.848 9.857 6.65 13.273 19.017 22.12 28.675 33.028 14.187 15.193 28.943 29.89 42.514 45.636 7.516 6.635 2.788 16.12-1.525 23.092-9.168 16.083-19.942 31.251-31.432 45.733L18.707 840.85c23.414-6.026 46.6-13.227 70.438-17.403 27.128-3.662 55.135-5.912 80.289-17.595 10.019-4.697 21.344-4.196 31.816-1.487 3.337.662 10.198 1.91 4.984-2.47-6.71-8.748-14.439-16.875-20.869-25.727l-8.246-24.72c.175-10.682-.169-21.596-3.398-31.862 50.893-9.247 102.258-15.533 153.425-23.02 10.288-1.36 20.674-.22 30.993-1.39 24.314-1.638 48.517-4.747 72.896-5.395 37.282-1.876 74.558-3.825 111.836-5.775 37.28 1.89 74.561 3.78 111.846 5.598 24.38.608 48.587 3.68 72.904 5.279 10.32 1.153 20.704-.004 30.994 1.34 51.18 7.404 102.555 13.61 153.463 22.775-3.213 10.271-3.54 21.186-3.348 31.867l-8.207 24.733c-6.415 8.862-14.131 17.001-20.828 25.76-5.206 4.388 1.653 3.13 4.989 2.464 10.467-2.726 21.791-3.247 31.818 1.434 25.172 11.644 53.182 13.85 80.316 17.469 23.844 4.137 47.044 11.3 70.467 17.289l-26.465-29.297c-11.513-14.463-22.312-29.612-31.506-45.68-4.324-6.965-9.065-16.443-1.56-23.09 13.545-15.767 28.277-30.489 42.44-45.705 9.64-10.922 21.992-19.79 28.622-33.074 1.467-2.091 6.013-13.921 2.832-9.86-7.938 4.06-17.076 4.26-25.765 5.253-9.424.094-18.709-2.476-27.94-4.194-15.52-4.034-31.589-6.466-46.423-12.763-6.326-3.665-15.433-4.835-19.196-11.315.086-11.36 2.535-22.504 4.301-33.678 2.535-16.558 9.221-33.648 4.354-50.384-2.246-6.944-10.296-7.53-16.182-9.557-54.507-13.883-109.756-24.659-165.063-34.81-22.658-3.714-45.154-8.921-68.1-10.528-53.05-2.897-106.128-5.224-159.198-7.723-6.369-.312-14.098-.624-19.725-.949z" class="UnoptimicedTransforms" style="display:inline;fill:#d2c2a6;fill-opacity:1;stroke:#30282a;stroke-width:0;stroke-dasharray:none;stroke-opacity:1" transform="matrix(.86877 0 0 1 -2.413 -47.189)"/><path d="M264.431 484.147c-7.593-5.635 12.188 1.45 1.46.649zm14.88-2.458c5.088-10.764 16.942-17.373 26.337-22.91 5.837-5 27.343-10.936 15.334 2.268-11.981 10.94-26.446 19.465-40.406 21.165zm-22.724-.574c-6.043-3.835 7.726-.76 2.15.727l-1.03-.242zm6.925-8.559c-5.355-3.48-17.847-9.742-12.595-18.786 9.454-1.186 18.007 5.19 20.446 14.41 1.494 8.73-3.49 6.998-7.851 4.376zm18.436-20.638c9.202-20.277 31.354-29.528 47.909-28.01 8.394 5.429-11.784 14.078-16.915 16.565-10.333 4.509-21.852 8.03-31.431 12.556zm-18.87-8.53c-7.493-3.696-15.544-10.23-15.017-20.962 6.172-10.034 14.941 2.36 19.426 6.11 5.301 3.11 10.817 21.372-1.12 16.158l-1.558-.593zm40.57-26.101c-10.371 4.503-17.478-5.038-4.29-10.777 12.556-5.748 25.985-8.895 38.063-7.575 7.088 5.666-11.287 11.71-16.333 13.845-5.8 2.089-11.659 3.722-17.44 4.507zm-31.966.744c-6.297-5.971-13.307-14.53-10.636-25.967 7.694-8.59 14.033 6.262 17.283 11.624 3.958 6.829 5.075 27.07-6.647 14.343zm43.82-28.051c-9.994 4.328-21.913-4.52-5.804-10.782 10.69-4.68 24.798-10.293 33.02-3.753-5.337 9.059-19.006 12.354-27.215 14.535zm-35.011-1.517c-4.502-5.157-12.338-20.726-1.855-26.188 7.608 4.504 11.26 14.573 12.124 24.563-.19 6.55-1.905 14.55-6.352 6.537-1.364-1.576-2.656-3.229-3.917-4.912zm16.063-19.093c-3.39-7.61-8.323-18.1-2.567-27.915 11.307-2.004 11.286 17.378 8.806 27.304-1.185 7.628-4.757 4.476-6.239.611zm19.824-6.706c-8.504-6.21 11.484-14.246 17.323-14.49 6.619-2.986 22.828 1.152 8.984 8.225-8.537 4.035-18.147 7.927-26.307 6.265zm-7.358-22.361c-4.044-4.56-7.62-21.594 2.032-22.571 6.035 6.95 8.11 19.079 4.383 30.18-3.382 1.651-4.717-5.846-6.415-7.61zm25.606-4.831c-16.197 3.172 3.737-16.542 10.997-15.966 5.628-.824 22.715-4.46 19.206 5.15-9.133 7.58-20.337 9.772-30.203 10.815zm-12.165-15.808c-2.254-7.087 12.605-9.417 7.397 1.169-3.942 8.328-5.913 3.378-7.397-1.17zm30.013-13.084c-14.492.554 4.496-15.43 11.453-15.129m2.644-10.11c-14.405-.237 7.032-13.943 13.054-11.567 16.157-1.719-6.21 12.663-13.054 11.567zm-9.826-9.495c-3.97-4.51-.598-26.98 5.366-15.405 2.832 4.287-.032 18.494-4.1 18.906zm19.658-8.624c-8.364-4.805 17.294-15.912 13.986-4.566-3.745 4.483-9.713 4.957-13.986 4.566zm-8.223-5.497c-6.537-3.44.811-24.75 4.559-11.48 2.115 2.536.606 14.724-4.559 11.48zm13.17-7.398c-1.533-9.194 22.306-13.682 9.643-2.72-2.979 1.815-6.809 3.92-9.643 2.72zm-5.344-10.743c-3.3-4.565 1.713-17.339 5.046-7.558 3.575 3.639-2.034 16.55-5.046 7.558zm11.399-1.8c-.43-4.842 8.954-24.604-.535-14.05-5.951-5.464 7.106-28.6 10.799-18.62-1.674 5.702-8.239 14.125.225 12.647 2.172 4.127-10.458 12.753-6.552 12.586 13.872-5.136 1.942 9.003-3.937 7.437zm294.621 246.363c7.594-5.635-12.187 1.45-1.46.649zm-14.88-2.458c-5.087-10.764-16.941-17.373-26.337-22.91-5.837-5-27.343-10.936-15.333 2.268 11.98 10.94 26.445 19.465 40.406 21.165zm22.725-.574c6.043-3.835-7.727-.76-2.151.727l1.031-.242zm-6.925-8.559c5.355-3.48 17.846-9.742 12.594-18.786-9.454-1.186-18.007 5.19-20.446 14.41-1.493 8.73 3.491 6.998 7.852 4.376zm-18.436-20.638c-9.202-20.277-31.354-29.528-47.91-28.01-8.394 5.429 11.785 14.078 16.916 16.565 10.333 4.509 21.852 8.03 31.43 12.556zm18.869-8.53c7.494-3.696 15.545-10.23 15.018-20.962-6.173-10.034-14.942 2.36-19.427 6.11-5.301 3.11-10.817 21.372 1.12 16.158l1.558-.593zm-40.569-26.101c10.37 4.503 17.478-5.038 4.29-10.777-12.556-5.748-25.986-8.895-38.064-7.575-7.088 5.666 11.288 11.71 16.333 13.845 5.8 2.089 11.66 3.722 17.441 4.507zm31.965.744c6.297-5.971 13.307-14.53 10.637-25.967-7.694-8.59-14.033 6.262-17.283 11.624-3.959 6.829-5.076 27.07 6.646 14.343zm-43.82-28.051c9.994 4.328 21.914-4.52 5.804-10.782-10.69-4.68-24.798-10.293-33.02-3.753 5.338 9.059 19.007 12.354 27.216 14.535zm35.011-1.517c4.503-5.157 12.338-20.726 1.855-26.188-7.608 4.504-11.26 14.573-12.124 24.563.19 6.55 1.906 14.55 6.352 6.537 1.364-1.576 2.657-3.229 3.917-4.912zm-16.063-19.093c3.391-7.61 8.324-18.1 2.568-27.915-11.307-2.004-11.287 17.378-8.806 27.304 1.185 7.628 4.756 4.476 6.238.611zm-19.824-6.706c8.504-6.21-11.484-14.246-17.323-14.49-6.619-2.986-22.828 1.152-8.984 8.225 8.537 4.035 18.147 7.927 26.307 6.265zm7.359-22.361c4.044-4.56 7.619-21.594-2.033-22.571-6.034 6.95-8.11 19.079-4.382 30.18 3.382 1.651 4.717-5.846 6.415-7.61zm-25.607-4.831c16.197 3.172-3.737-16.542-10.997-15.966-5.628-.824-22.715-4.46-19.205 5.15 9.133 7.58 20.336 9.772 30.202 10.815zm12.165-15.808c2.254-7.087-12.604-9.417-7.397 1.169 3.943 8.328 5.914 3.378 7.397-1.17zm-30.012-13.084c14.492.554-4.497-15.43-11.454-15.129m-2.643-10.11c14.405-.237-7.033-13.943-13.055-11.567-16.157-1.719 6.21 12.663 13.055 11.567zm9.825-9.495c3.97-4.51.598-26.98-5.366-15.405-2.832 4.287.033 18.494 4.1 18.906zm-19.658-8.624c8.365-4.805-17.294-15.912-13.985-4.566 3.745 4.483 9.712 4.957 13.985 4.566zm8.223-5.497c6.537-3.44-.81-24.75-4.558-11.48-2.116 2.536-.607 14.724 4.558 11.48zm-13.17-7.398c1.533-9.194-22.306-13.682-9.642-2.72 2.978 1.815 6.808 3.92 9.642 2.72zm5.344-10.743c3.3-4.565-1.713-17.339-5.046-7.558-3.574 3.639 2.035 16.55 5.046 7.558zm-11.398-1.8c.43-4.842-8.955-24.604.534-14.05 5.952-5.464-7.105-28.6-10.798-18.62 1.674 5.702 8.238 14.125-.225 12.647-2.172 4.127 10.457 12.753 6.551 12.586-13.872-5.136-1.942 9.003 3.938 7.437z" class="UnoptimicedTransforms" style="display:inline;fill:#584236;stroke:#fff;stroke-width:0;stroke-dasharray:none;stroke-opacity:1" transform="matrix(1.1021 0 0 .97045 -56.212 -27.564)"/></g><g style="font-size:100px;fill:#30282a;stroke-width:.3;stroke-dasharray:.6,.3,.15,.3;stroke-opacity:.00623498"><path d="m114.053 1134.134-13.813-70.968 24.442-4.758q6.969-1.356 12.184-.996 5.215.36 8.833 2.203 3.668 1.833 5.819 5.031 2.15 3.198 3 7.566.488 2.503.2 4.953-.296 2.401-1.475 4.72-1.14 2.259-3.23 4.346-2.04 2.078-5.108 3.847 15.265.442 17.701 12.957.879 4.515-.094 8.678-.973 4.162-3.716 7.6-2.754 3.388-7.258 5.895-4.504 2.507-10.688 3.71zm7.146-33.686 4.05 20.81 13.35-2.599q3.68-.716 6.012-2.087 2.33-1.37 3.517-3.13 1.235-1.768 1.49-3.855.305-2.097-.124-4.305-.45-2.307-1.539-3.98-1.1-1.721-2.918-2.692-1.828-1.02-4.465-1.22-2.588-.209-6.073.47zm-1.777-9.129 10.503-2.044q6.773-1.318 9.731-4.44 3.007-3.133 1.966-8.482-1.08-5.546-4.68-7.29-3.599-1.745-10.274-.446l-11.239 2.187zm68.161-24.574q4.76-.927 9.08-.189 4.321.739 7.79 3.12 3.46 2.332 5.91 6.286 2.49 3.896 3.55 9.344.536 2.749.138 3.845-.408 1.047-2.076 1.372l-31.166 6.066q1.05 3.82 2.683 6.456 1.624 2.587 3.754 4.108 2.12 1.472 4.707 1.937 2.626.406 5.57-.167 2.945-.574 4.922-1.671 2.026-1.108 3.434-2.248 1.457-1.15 2.501-2.066 1.094-.926 2.222-1.145 1.522-.297 2.478.689l4.344 3.739q-1.554 2.747-3.742 4.854-2.197 2.058-4.754 3.574-2.518 1.458-5.288 2.405-2.721.937-5.372 1.453-5.251 1.022-10.1.183-4.86-.888-8.856-3.625-4.006-2.786-6.895-7.42-2.898-4.682-4.187-11.308-1.003-5.153-.213-9.993.78-4.89 3.222-8.828 2.482-3.998 6.566-6.83 4.133-2.843 9.778-3.941m1.936 8.64q-5.3 1.03-7.712 4.607-2.411 3.577-2.176 9.236l22.871-4.451q-.458-2.356-1.547-4.284-1.048-1.986-2.68-3.299-1.63-1.312-3.863-1.795-2.194-.54-4.893-.015zm52.954-19.201q4.8-.698 9.08.247 4.28.944 7.63 3.49 3.344 2.494 5.602 6.562 2.3 4.011 3.099 9.503.402 2.771-.048 3.847-.457 1.026-2.14 1.27l-31.42 4.565q.865 3.866 2.37 6.578 1.499 2.662 3.553 4.283 2.047 1.572 4.609 2.16 2.603.532 5.572.1 2.969-.43 4.996-1.433 2.076-1.009 3.537-2.08 1.511-1.078 2.598-1.943 1.136-.873 2.274-1.038 1.534-.223 2.442.807l4.16 3.943q-1.684 2.67-3.97 4.67-2.294 1.95-4.92 3.342-2.586 1.335-5.398 2.148-2.763.805-5.435 1.193-5.294.77-10.098-.301-4.811-1.12-8.672-4.046-3.868-2.974-6.53-7.741-2.67-4.816-3.64-11.496-.756-5.196.265-9.992 1.014-4.846 3.643-8.664 2.67-3.874 6.886-6.507 4.265-2.64 9.955-3.467m1.52 8.722q-5.344.776-7.924 4.233-2.58 3.456-2.616 9.12l23.058-3.349q-.345-2.375-1.34-4.353-.952-2.034-2.518-3.423-1.566-1.39-3.774-1.978-2.165-.646-4.886-.25m37.372 39.934-4.358-51.115 7.224-.616q1.893-.161 2.7.472.802.584 1.2 2.307l1.19 5.72q2.05-4.792 5.118-7.663 3.063-2.921 7.547-3.303 3.537-.302 5.81 1.06l-.01 9.284q-.173.918-.638 1.36-.418.386-1.215.454-.748.064-2.263-.058-1.466-.126-2.861-.01-2.043.174-3.586.908-1.543.734-2.741 1.99-1.152 1.202-2.012 2.882-.811 1.675-1.484 3.79l2.685 31.485zm57.201-30.67q.519 6.077-.56 11.087-1.078 5.01-3.774 8.702-2.646 3.688-6.923 5.91-4.277 2.22-10.155 2.722-2.69.23-5.311.102-2.616-.078-5.515-.534-.02-2.005.009-4.015.03-2.01.009-4.015.056-1.11.698-1.816.688-.762 2.033-.876.847-.072 2.222.162 1.424.23 3.517.05 2.84-.241 4.964-1.225 2.12-1.034 3.411-2.951 1.342-1.921 1.847-4.824.501-2.954.153-7.039l-3.985-46.73 13.402-1.143zm52.745-37.442q-.542 1.08-1.215 1.618-.624.484-1.623.538-1.048.056-2.337-.625-1.241-.735-2.99-1.592-1.749-.857-4.086-1.482-2.29-.677-5.385-.51-2.796.15-4.855.962-2.062.762-3.445 2.039-1.334 1.274-1.941 3.009-.61 1.685-.503 3.682.138 2.546 1.627 4.168 1.54 1.62 3.95 2.692 2.412 1.071 5.459 1.858 3.047.788 6.251 1.716 3.202.88 6.276 2.166 3.071 1.236 5.536 3.306 2.462 2.02 4.03 5.09 1.617 3.068 1.86 7.561.264 4.893-1.202 9.279-1.42 4.332-4.492 7.703-3.026 3.317-7.57 5.415-4.546 2.048-10.537 2.371-3.445.186-6.828-.333-3.38-.469-6.543-1.55-3.113-1.084-5.903-2.686-2.79-1.602-5.003-3.636l3.597-6.653q.461-.726 1.236-1.218.772-.543 1.67-.591 1.249-.067 2.753.903 1.502.92 3.566 2.06 2.065 1.141 4.768 2.047 2.75.853 6.494.651 5.742-.31 8.742-3.175 2.997-2.916 2.722-8.008-.153-2.846-1.698-4.565-1.495-1.722-3.906-2.794-2.414-1.122-5.455-1.809-3.042-.687-6.191-1.519-3.15-.831-6.22-2.068-3.071-1.236-5.54-3.356-2.467-2.12-4.095-5.388-1.581-3.32-1.848-8.262-.212-3.944 1.133-7.773 1.396-3.83 4.236-6.888 2.84-3.057 7.138-5.041 4.3-1.985 9.992-2.292 6.39-.344 11.89 1.362 5.5 1.706 9.488 5.097zm83.375 1.61q-.619 1.039-1.328 1.526-.658.438-1.658.42-1.05-.019-2.286-.791-1.185-.822-2.868-1.802-1.682-.98-3.969-1.772-2.235-.84-5.334-.896-2.8-.05-4.912.611-2.111.612-3.583 1.786-1.421 1.175-2.152 2.862-.73 1.637-.765 3.637-.046 2.55 1.323 4.274 1.419 1.726 3.747 2.968t5.31 2.246q2.983 1.004 6.112 2.16 3.131 1.107 6.104 2.611 2.975 1.454 5.285 3.696 2.31 2.192 3.654 5.367 1.393 3.175 1.312 7.674-.089 4.9-1.866 9.168-1.726 4.22-5.033 7.36-3.257 3.093-7.94 4.859-4.68 1.716-10.68 1.607-3.45-.062-6.786-.822-3.338-.71-6.415-2.016-3.027-1.305-5.695-3.103-2.668-1.798-4.729-3.986l4.066-6.378q.512-.69 1.32-1.126.81-.486 1.709-.47 1.25.023 2.68 1.1 1.432 1.025 3.41 2.31 1.977 1.287 4.607 2.384 2.682 1.049 6.431 1.116 5.75.104 8.947-2.539 3.2-2.693 3.291-7.792.052-2.85-1.366-4.675-1.367-1.825-3.695-3.067-2.327-1.292-5.311-2.196-2.985-.904-6.066-1.96t-6.056-2.51q-2.974-1.453-5.283-3.745-2.31-2.292-3.699-5.668-1.338-3.424-1.249-8.374.071-3.949 1.689-7.67 1.667-3.721 4.719-6.566 3.051-2.846 7.482-4.516t10.13-1.568q6.399.115 11.762 2.212t9.098 5.765zm29.184-14.84-2.402 42.482 2.297.13q1.248.07 1.963-.19.769-.307 1.574-1.263l13.62-15.005q.857-1.003 1.837-1.499 1.03-.492 2.577-.405l11.282.638-17 18.12q-1.825 2.15-3.89 3.235 1.007.808 1.749 1.852.792 1.046 1.476 2.236l15.667 25.826-11.132-.63q-1.448-.081-2.471-.59-1.02-.558-1.648-1.846l-11.981-20.158q-.634-1.188-1.363-1.58-.73-.392-2.227-.476l-2.796-.158-1.326 23.462-12.33-.697 4.194-74.182zm62.961 28.762q5.658.692 10.05 3.093 4.44 2.406 7.303 6.181 2.913 3.781 4.105 8.864 1.193 5.082.459 11.087-.74 6.055-3.121 10.7-2.381 4.646-6.125 7.664-3.694 3.024-8.584 4.29-4.84 1.273-10.498.581-5.708-.697-10.148-3.104-4.441-2.406-7.348-6.237-2.857-3.825-4.1-8.913-1.191-5.082-.451-11.137.733-6.005 3.115-10.651 2.43-4.64 6.118-7.614 3.738-2.968 8.628-4.235 4.89-1.266 10.597-.568m-5.259 43.03q6.353.777 9.902-3.121 3.599-3.893 4.606-12.131 1.007-8.239-1.543-12.933-2.5-4.688-8.852-5.464-6.452-.789-10.113 3.197-3.605 3.942-4.605 12.13-1.001 8.19 1.548 12.884 2.605 4.65 9.057 5.438m31.609 29.585 7.388-67.648 7.505.82q2.386.26 2.887 2.579l.479 4.83q3.467-3.192 7.682-4.945 4.265-1.747 9.633-1.161 4.175.456 7.415 2.57 3.29 2.12 5.41 5.721 2.178 3.558 2.988 8.575.865 4.974.18 11.236-.623 5.716-2.696 10.42-2.073 4.702-5.347 7.966-3.224 3.27-7.522 4.862-4.243 1.548-9.263 1-4.325-.472-7.215-2.096-2.836-1.667-4.967-4.264l-2.28 20.876zm30.29-56.294q-3.826-.418-6.74.924-2.857 1.297-5.513 3.975l-2.497 22.864q1.805 2.812 4.127 4.122 2.376 1.265 5.26 1.58 2.783.304 5.133-.495 2.35-.8 4.125-2.769 1.824-1.963 3.022-5.102 1.203-3.188 1.686-7.612.489-4.473.08-7.636-.354-3.208-1.485-5.293-1.13-2.085-2.97-3.191-1.792-1.101-4.227-1.367m46.103-4.006-5.55 52.76q-.35 3.33-1.554 6.17-1.154 2.845-3.323 4.83-2.125 2.038-5.389 2.952-3.219.968-7.694.497-1.74-.183-3.206-.588-1.471-.356-3.01-1.02l1.143-6.567q.254-.979.932-1.21.673-.18 2.512.014 1.84.193 3.125-.073 1.33-.212 2.165-.98.83-.716 1.269-2.028.489-1.306.698-3.295l5.55-52.759zm3.255-14.69q-.167 1.591-.96 2.916-.793 1.324-1.997 2.253-1.154.935-2.714 1.424-1.504.445-3.145.272-1.592-.167-2.921-.91-1.324-.793-2.259-1.947-.934-1.154-1.434-2.614-.45-1.456-.283-3.047.173-1.64.921-3.02.798-1.374 1.952-2.308 1.154-.935 2.61-1.385 1.46-.5 3.05-.333 1.642.173 3.016.971 1.429.754 2.363 1.908.984 1.16 1.48 2.67.494 1.51.321 3.15m31.09 17.499q4.823.507 8.739 2.478 3.915 1.97 6.535 5.263 2.625 3.242 3.811 7.74 1.24 4.455.66 9.975-.293 2.784-.994 3.716-.696.882-2.387.704l-31.576-3.322q-.115 3.96.676 6.96.796 2.949 2.387 5.027 1.597 2.028 3.934 3.229 2.392 1.156 5.376 1.47 2.983.314 5.195-.157 2.26-.466 3.94-1.144 1.73-.673 2.997-1.243 1.317-.566 2.46-.445 1.542.162 2.168 1.384l3.06 4.847q-2.29 2.172-5 3.546-2.703 1.325-5.592 2.026-2.834.657-5.76.752-2.876.1-5.562-.183-5.32-.56-9.712-2.782-4.386-2.271-7.407-6.058-3.015-3.836-4.42-9.112-1.401-5.326-.695-12.039.55-5.221 2.721-9.618 2.178-4.447 5.666-7.498 3.543-3.097 8.278-4.61 4.784-1.508 10.502-.906m-.677 8.828q-5.37-.565-8.723 2.149-3.352 2.714-4.784 8.194l23.173 2.438q.25-2.387-.226-4.548-.421-2.207-1.596-3.94-1.176-1.732-3.17-2.846-1.94-1.16-4.674-1.447" aria-label="BeerJS Skopje" style="font-weight:700;font-family:Lato;-inkscape-font-specification:&quot;Lato Bold&quot;" transform="translate(54.972 -524.416)"/></g><path d="m106.151 1135.672 145.315-28.283 134.716-11.487 126.989 2.289 89.08 10.886 132.643 13.954 42.649 13.463" style="fill:none;fill-opacity:1;stroke:none;stroke-width:.3;stroke-dasharray:.6,.3,.15,.3;stroke-dashoffset:0;stroke-opacity:.00623498" transform="translate(-43.167 -47.963)"/><text xml:space="preserve" x="435.936" y="859.195" style="font-style:normal;font-variant:normal;font-weight:700;font-stretch:normal;font-size:26.6667px;font-family:Lato;-inkscape-font-specification:&quot;Lato Bold&quot;;fill:#d2c2a6;fill-opacity:1;stroke:none;stroke-width:.3;stroke-dasharray:.6,.3,.15,.3;stroke-dashoffset:0;stroke-opacity:.00623498" transform="translate(-43.167 -47.963)"><tspan x="435.936" y="859.195" style="font-style:normal;font-variant:normal;font-weight:700;font-stretch:normal;font-size:26.6667px;font-family:&quot;Inconsolata g&quot;;-inkscape-font-specification:&quot;Inconsolata g Bold&quot;">est. 2017</tspan></text><text xml:space="preserve" x="520.241" y="762.26" style="font-style:normal;font-variant:normal;font-weight:700;font-stretch:normal;font-size:21.3333px;font-family:Lato;-inkscape-font-specification:&quot;Lato Bold&quot;;text-align:center;text-anchor:middle;display:inline;fill:#d2c2a6;fill-opacity:1;stroke:none;stroke-width:.3;stroke-dasharray:.6,.3,.15,.3;stroke-dashoffset:0;stroke-opacity:.00623498" transform="translate(-43.167 -47.963)"><tspan x="520.241" y="762.26" style="font-style:normal;font-variant:normal;font-weight:700;font-stretch:normal;font-size:21.3333px;font-family:&quot;Inconsolata g&quot;;-inkscape-font-specification:&quot;Inconsolata g Bold&quot;;text-align:center;text-anchor:middle">a community for beer</tspan><tspan x="520.241" y="789.246" style="font-style:normal;font-variant:normal;font-weight:700;font-stretch:normal;font-size:21.3333px;font-family:&quot;Inconsolata g&quot;;-inkscape-font-specification:&quot;Inconsolata g Bold&quot;;text-align:center;text-anchor:middle">and JavaScript enthusiasts</tspan></text><path d="m147.904 631.84 3.221 46.755 3.306 50.947 37.14-9.266" style="fill:none;stroke:#30282a;stroke-opacity:1;stroke-width:.79999993;stroke-dasharray:none" transform="translate(-43.167 -47.963)"/></g></svg>